<mxfile host="app.diagrams.net" agent="Mozilla/5.0 (Windows NT 10.0; Win64; x64) AppleWebKit/537.36 (KHTML, like Gecko) Chrome/137.0.0.0 Safari/537.36 Edg/137.0.0.0" version="27.1.6">
  <diagram name="Página-1" id="RAa1BdrujBWMfVXAcfYH">
    <mxGraphModel grid="1" page="1" gridSize="10" guides="1" tooltips="1" connect="1" arrows="1" fold="1" pageScale="1" pageWidth="827" pageHeight="1169" math="0" shadow="0">
      <root>
        <mxCell id="0" />
        <mxCell id="1" parent="0" />
        <mxCell id="TL9MQoXClcoYPPyAwhr7-53" value="CU007 Eliminar cuentas" style="swimlane;childLayout=stackLayout;resizeParent=1;resizeParentMax=0;startSize=20;horizontal=0;horizontalStack=1;" vertex="1" parent="1">
          <mxGeometry x="871" y="315" width="740" height="540" as="geometry">
            <mxRectangle x="200" y="80" width="40" height="50" as="alternateBounds" />
          </mxGeometry>
        </mxCell>
        <mxCell id="TL9MQoXClcoYPPyAwhr7-54" value="Administrador" style="swimlane;startSize=20;" vertex="1" parent="TL9MQoXClcoYPPyAwhr7-53">
          <mxGeometry x="20" width="290" height="540" as="geometry" />
        </mxCell>
        <mxCell id="TL9MQoXClcoYPPyAwhr7-55" value="" style="ellipse;html=1;shape=startState;fillColor=#000000;strokeColor=#ff0000;fillStyle=auto;" vertex="1" parent="TL9MQoXClcoYPPyAwhr7-54">
          <mxGeometry x="89" y="30" width="30" height="30" as="geometry" />
        </mxCell>
        <mxCell id="TL9MQoXClcoYPPyAwhr7-57" value="" style="edgeStyle=orthogonalEdgeStyle;html=1;verticalAlign=bottom;endArrow=open;endSize=8;strokeColor=#ff0000;rounded=0;" edge="1" parent="TL9MQoXClcoYPPyAwhr7-54" source="TL9MQoXClcoYPPyAwhr7-55" target="yQjIOaTnqbEOhe9qrxXU-1">
          <mxGeometry relative="1" as="geometry">
            <mxPoint x="104" y="100" as="targetPoint" />
            <mxPoint x="340" y="320" as="sourcePoint" />
          </mxGeometry>
        </mxCell>
        <mxCell id="TL9MQoXClcoYPPyAwhr7-58" value="" style="ellipse;html=1;shape=endState;fillColor=#000000;strokeColor=#ff0000;" vertex="1" parent="TL9MQoXClcoYPPyAwhr7-54">
          <mxGeometry x="185" y="465" width="30" height="30" as="geometry" />
        </mxCell>
        <mxCell id="TL9MQoXClcoYPPyAwhr7-88" value="Pulsar botón &quot;Eliminar cuentas&quot;" style="rounded=1;whiteSpace=wrap;html=1;arcSize=40;fontColor=#000000;fillColor=#ffffc0;strokeColor=light-dark(#ff0000, #ededed);" vertex="1" parent="TL9MQoXClcoYPPyAwhr7-54">
          <mxGeometry x="140" y="240" width="120" height="40" as="geometry" />
        </mxCell>
        <mxCell id="yQjIOaTnqbEOhe9qrxXU-1" value="Pulsa el apartado &quot;Administrar cuentas&quot;" style="rounded=1;whiteSpace=wrap;html=1;arcSize=40;fontColor=#000000;fillColor=#ffffc0;strokeColor=#ff0000;" vertex="1" parent="TL9MQoXClcoYPPyAwhr7-54">
          <mxGeometry x="44" y="110" width="120" height="50" as="geometry" />
        </mxCell>
        <mxCell id="NBBydASgtveqsr2C_X4L-11" style="edgeStyle=orthogonalEdgeStyle;rounded=0;orthogonalLoop=1;jettySize=auto;html=1;strokeColor=#FF0000;" edge="1" parent="TL9MQoXClcoYPPyAwhr7-54" source="yQjIOaTnqbEOhe9qrxXU-3">
          <mxGeometry relative="1" as="geometry">
            <Array as="points" />
            <mxPoint x="200" y="410" as="sourcePoint" />
            <mxPoint x="199.5" y="465" as="targetPoint" />
          </mxGeometry>
        </mxCell>
        <mxCell id="NBBydASgtveqsr2C_X4L-12" value="no" style="edgeLabel;html=1;align=center;verticalAlign=middle;resizable=0;points=[];" vertex="1" connectable="0" parent="NBBydASgtveqsr2C_X4L-11">
          <mxGeometry x="-0.8697" relative="1" as="geometry">
            <mxPoint x="1" y="7" as="offset" />
          </mxGeometry>
        </mxCell>
        <mxCell id="yQjIOaTnqbEOhe9qrxXU-3" value="Pulsar botón &quot;Confirmar&quot;" style="rhombus;whiteSpace=wrap;html=1;fontColor=#000000;fillColor=#ffffc0;strokeColor=#ff0000;" vertex="1" parent="TL9MQoXClcoYPPyAwhr7-54">
          <mxGeometry x="110" y="360" width="180" height="60" as="geometry" />
        </mxCell>
        <mxCell id="TL9MQoXClcoYPPyAwhr7-61" style="edgeStyle=orthogonalEdgeStyle;rounded=0;orthogonalLoop=1;jettySize=auto;html=1;entryX=0.5;entryY=0;entryDx=0;entryDy=0;strokeColor=light-dark(#ff0000, #ededed);" edge="1" parent="TL9MQoXClcoYPPyAwhr7-53" source="yQjIOaTnqbEOhe9qrxXU-1" target="TL9MQoXClcoYPPyAwhr7-65">
          <mxGeometry relative="1" as="geometry">
            <Array as="points">
              <mxPoint x="223" y="135" />
              <mxPoint x="223" y="40" />
              <mxPoint x="490" y="40" />
            </Array>
            <mxPoint x="171.5" y="142.5" as="sourcePoint" />
          </mxGeometry>
        </mxCell>
        <mxCell id="NBBydASgtveqsr2C_X4L-1" style="edgeStyle=orthogonalEdgeStyle;rounded=0;orthogonalLoop=1;jettySize=auto;html=1;strokeColor=light-dark(#ff0000, #ededed);" edge="1" parent="TL9MQoXClcoYPPyAwhr7-53" source="TL9MQoXClcoYPPyAwhr7-66" target="TL9MQoXClcoYPPyAwhr7-88">
          <mxGeometry relative="1" as="geometry">
            <Array as="points">
              <mxPoint x="490" y="220" />
              <mxPoint x="220" y="220" />
            </Array>
          </mxGeometry>
        </mxCell>
        <mxCell id="NBBydASgtveqsr2C_X4L-19" value="" style="edgeStyle=orthogonalEdgeStyle;rounded=0;orthogonalLoop=1;jettySize=auto;html=1;strokeColor=#FF0000;" edge="1" parent="TL9MQoXClcoYPPyAwhr7-53" source="NBBydASgtveqsr2C_X4L-17" target="TL9MQoXClcoYPPyAwhr7-58">
          <mxGeometry relative="1" as="geometry" />
        </mxCell>
        <mxCell id="NBBydASgtveqsr2C_X4L-4" value="" style="edgeStyle=orthogonalEdgeStyle;rounded=0;orthogonalLoop=1;jettySize=auto;html=1;strokeColor=light-dark(#ff0000, #ededed);" edge="1" parent="TL9MQoXClcoYPPyAwhr7-53" source="TL9MQoXClcoYPPyAwhr7-88" target="NBBydASgtveqsr2C_X4L-3">
          <mxGeometry relative="1" as="geometry" />
        </mxCell>
        <mxCell id="NBBydASgtveqsr2C_X4L-6" style="edgeStyle=orthogonalEdgeStyle;rounded=0;orthogonalLoop=1;jettySize=auto;html=1;entryX=0.5;entryY=0;entryDx=0;entryDy=0;strokeColor=#FF0000;" edge="1" parent="TL9MQoXClcoYPPyAwhr7-53" source="NBBydASgtveqsr2C_X4L-3">
          <mxGeometry relative="1" as="geometry">
            <mxPoint x="220" y="360" as="targetPoint" />
          </mxGeometry>
        </mxCell>
        <mxCell id="NBBydASgtveqsr2C_X4L-14" style="edgeStyle=orthogonalEdgeStyle;rounded=0;orthogonalLoop=1;jettySize=auto;html=1;strokeColor=#FF0000;" edge="1" parent="TL9MQoXClcoYPPyAwhr7-53" source="yQjIOaTnqbEOhe9qrxXU-3" target="NBBydASgtveqsr2C_X4L-15">
          <mxGeometry relative="1" as="geometry">
            <mxPoint x="678.4285714285713" y="510" as="targetPoint" />
            <Array as="points">
              <mxPoint x="519" y="380" />
            </Array>
            <mxPoint x="280" y="380" as="sourcePoint" />
          </mxGeometry>
        </mxCell>
        <mxCell id="NBBydASgtveqsr2C_X4L-16" value="si" style="edgeLabel;html=1;align=center;verticalAlign=middle;resizable=0;points=[];" vertex="1" connectable="0" parent="NBBydASgtveqsr2C_X4L-14">
          <mxGeometry x="-0.9161" y="-1" relative="1" as="geometry">
            <mxPoint x="25" as="offset" />
          </mxGeometry>
        </mxCell>
        <mxCell id="TL9MQoXClcoYPPyAwhr7-63" value="Sistema" style="swimlane;startSize=20;" vertex="1" parent="TL9MQoXClcoYPPyAwhr7-53">
          <mxGeometry x="310" width="430" height="540" as="geometry" />
        </mxCell>
        <mxCell id="TL9MQoXClcoYPPyAwhr7-64" style="edgeStyle=orthogonalEdgeStyle;rounded=0;orthogonalLoop=1;jettySize=auto;html=1;entryX=0.5;entryY=0;entryDx=0;entryDy=0;strokeColor=light-dark(#ff0000, #ededed);" edge="1" parent="TL9MQoXClcoYPPyAwhr7-63" source="TL9MQoXClcoYPPyAwhr7-65" target="TL9MQoXClcoYPPyAwhr7-66">
          <mxGeometry relative="1" as="geometry" />
        </mxCell>
        <mxCell id="TL9MQoXClcoYPPyAwhr7-65" value="Mostrar apartado" style="rounded=1;whiteSpace=wrap;html=1;arcSize=40;fontColor=#000000;fillColor=#ffffc0;strokeColor=#ff0000;" vertex="1" parent="TL9MQoXClcoYPPyAwhr7-63">
          <mxGeometry x="120" y="60" width="120" height="50" as="geometry" />
        </mxCell>
        <mxCell id="TL9MQoXClcoYPPyAwhr7-66" value="Mostrar listado de cuentas" style="rounded=1;whiteSpace=wrap;html=1;arcSize=40;fontColor=#000000;fillColor=#ffffc0;strokeColor=light-dark(#ff0000, #ededed);" vertex="1" parent="TL9MQoXClcoYPPyAwhr7-63">
          <mxGeometry x="120" y="140" width="120" height="40" as="geometry" />
        </mxCell>
        <mxCell id="NBBydASgtveqsr2C_X4L-18" value="" style="edgeStyle=orthogonalEdgeStyle;rounded=0;orthogonalLoop=1;jettySize=auto;html=1;strokeColor=light-dark(#ff0000, #ededed);" edge="1" parent="TL9MQoXClcoYPPyAwhr7-63" source="NBBydASgtveqsr2C_X4L-15" target="NBBydASgtveqsr2C_X4L-17">
          <mxGeometry relative="1" as="geometry" />
        </mxCell>
        <mxCell id="NBBydASgtveqsr2C_X4L-15" value="Borrar cuenta" style="rounded=1;whiteSpace=wrap;html=1;arcSize=40;fontColor=#000000;fillColor=#ffffc0;strokeColor=light-dark(#ff0000, #ededed);" vertex="1" parent="TL9MQoXClcoYPPyAwhr7-63">
          <mxGeometry x="149" y="400" width="120" height="40" as="geometry" />
        </mxCell>
        <mxCell id="NBBydASgtveqsr2C_X4L-17" value="Mostrar mensaje de éxito" style="rounded=1;whiteSpace=wrap;html=1;arcSize=40;fontColor=#000000;fillColor=#ffffc0;strokeColor=light-dark(#ff0000, #ededed);" vertex="1" parent="TL9MQoXClcoYPPyAwhr7-63">
          <mxGeometry x="149" y="460" width="120" height="40" as="geometry" />
        </mxCell>
        <mxCell id="NBBydASgtveqsr2C_X4L-3" value="Mostrar mensaje confirmación" style="rounded=1;whiteSpace=wrap;html=1;arcSize=40;fontColor=#000000;fillColor=#ffffc0;strokeColor=light-dark(#ff0000, #ededed);" vertex="1" parent="TL9MQoXClcoYPPyAwhr7-63">
          <mxGeometry x="89" y="295" width="120" height="40" as="geometry" />
        </mxCell>
      </root>
    </mxGraphModel>
  </diagram>
</mxfile>
